<svg width="850" height="257" viewBox="0 0 850 257" fill="none" xmlns="http://www.w3.org/2000/svg">
<path d="M162.107 23.8443C218.388 19.0792 302.598 45.8531 325.617 101.865C333.326 120.543 333.309 141.519 325.569 160.185C315.672 183.866 294.282 202.466 272.317 214.934C264.521 219.36 256.279 222.678 248.002 226.077L205.302 156.939C200.309 157.203 195.206 157.167 190.198 157.188C185.29 165.046 180.01 172.971 174.951 180.753C172.801 183.769 170.012 188.079 168.132 191.199C161.033 180.968 151.933 168.091 145.489 157.656C140.291 157.728 135.092 157.749 129.894 157.721C116.557 179.829 102.547 203.304 88.6768 225.078C52.3402 209.35 16.9385 180.224 13.2526 138.061C10.638 108.153 26.1781 81.7065 48.8476 63.2976C81.566 36.7281 120.881 26.4269 162.107 23.8443Z" fill="#EAEDFF"/>
<path d="M167.77 90.8119C177.823 107.43 188.083 126.373 197.898 143.436L182.59 143.599C178.029 151.402 173.285 159.943 168.434 167.483C163.824 160.184 158.945 151.3 154.59 143.716C149.113 143.867 143.147 143.782 137.631 143.796C147.495 126.032 157.542 108.369 167.77 90.8119Z" fill="#A5CAF9"/>
<path d="M480.956 82.7934C481.362 82.7802 481.769 82.7694 482.176 82.7615C497.445 82.4837 513.158 82.8549 528.515 82.727C539.302 83.0646 550.234 81.9548 560.925 83.5927C580.125 86.5347 582.109 104.469 581.802 120.292C581.594 130.997 581.719 141.591 573.58 149.886C566.117 157.49 555.422 157.096 545.619 157.152L498.109 157.137C498.146 157.648 498.18 158.16 498.205 158.672C498.433 162.976 499.188 184.994 497.067 187.36C494.814 188.686 479.366 188.903 477.179 186.919C476.191 182.335 476.473 174.814 476.469 169.875L476.461 146.935L476.473 108.197C476.477 102.308 475.875 90.6832 477.291 84.7166C477.569 83.5404 479.719 83.0467 480.956 82.7934ZM498.425 134.892C508.693 134.403 549.097 136.238 555.301 133.317C559.273 130.02 559.427 127.017 559.468 122.13C559.539 113.207 559.954 105.73 548.677 105.407C542.684 105.152 536.612 105.251 530.615 105.257L498.205 105.374C498.719 114.808 498.184 125.288 498.425 134.892Z" fill="#EAEDFF"/>
<path d="M636.446 82.7984L641.605 82.7577L678.199 82.7403C684.478 82.7445 691.194 82.2836 697.427 82.8894C698.32 82.9765 699.324 83.0924 699.968 83.782C701.644 85.5781 701.072 96.9027 701.022 99.8264C700.989 101.542 700.922 103.481 699.482 104.671C697.021 106.707 642.132 104.696 634.026 105.874C631.611 106.226 628.626 106.878 626.821 108.65C622.866 112.532 622.986 119.405 622.965 124.561C631.843 124.183 696.033 123.709 698.515 125.108C699.266 125.533 699.577 126.41 699.789 127.21C700.573 130.195 700.769 142.039 699.362 144.476C698.552 145.248 697.921 145.64 696.776 145.704C688.952 146.145 680.569 145.87 672.699 145.863L623.082 145.847C622.455 147.621 622.899 151.281 623.115 153.241C623.48 156.568 624.572 161.319 627.539 163.335C636.271 169.275 695.083 162.923 699.71 166.866C700.669 167.682 700.905 169.96 700.993 171.141C701.2 173.992 701.79 185.054 699.988 187.008C699.15 187.92 697.901 188.063 696.73 188.14C686.437 188.825 675.688 188.201 665.353 188.194C653.475 188.185 637.62 189.31 626.286 187.172C620.737 186.127 615.163 184.171 610.888 180.366C603.6 173.877 601.603 163.446 601.113 154.114C600.765 147.521 600.985 140.859 600.977 134.254C600.964 120.904 599.528 103.087 609.228 92.4212C616.258 84.6908 626.601 83.2705 636.446 82.7984Z" fill="#EAEDFF"/>
<path d="M389.659 82.7714C394.155 82.6743 403.472 82.1823 406.868 84.9565C413.842 90.6533 419.144 104.623 423.099 112.659C430.661 127.762 438.061 142.942 445.308 158.197C448.338 164.463 451.6 170.632 454.663 176.879C455.842 179.282 459.133 185.093 457.572 187.405C454.418 188.701 439.817 188.234 435.916 187.88C432.691 181.968 429.275 174.386 426.303 168.221L400.72 168.23L364.266 168.208C363.099 170.709 355.944 187.231 353.484 187.701C350.908 188.192 332.7 189.202 331.724 186.518C333.214 179.747 339.436 168.614 342.649 161.958L364.571 117.262C368.443 109.429 372.031 101.423 376.017 93.6422C379.579 86.6912 381.598 83.7259 389.659 82.7714ZM374.375 147.157C381.254 147.031 388.134 146.999 395.013 147.06C401.129 147.06 410.333 146.787 416.201 147.204C413.554 141.867 396.726 106.534 394.768 104.999C392.09 109.612 389.078 116.35 386.702 121.311L374.375 147.157Z" fill="#EAEDFF"/>
<path d="M775.916 118.013C778.576 114.556 781.792 110.882 784.665 107.553C791.33 99.8264 797.614 91.6631 804.69 84.3271C806.902 82.032 815.328 82.6876 818.312 82.7934C822.101 82.928 827.654 81.5695 830.211 84.6647C830.19 88.0202 819.818 98.7872 817.046 102.033C807.936 112.696 798.743 123.285 789.462 133.799C790.293 134.942 791.23 136.009 792.148 137.084C803.067 149.886 813.576 163.013 824.782 175.575C827.355 178.461 830.9 182.372 832.029 186.034C831.493 188.938 825.965 188.217 823.541 188.196C818.283 188.229 812.165 188.415 806.994 187.964C804.317 185.845 797.796 177.793 795.348 174.889C788.072 166.407 780.954 157.788 774.002 149.038C770.777 153.784 743.837 185.637 740.426 187.994C736.441 188.323 721.014 188.643 717.607 187.577C715.199 185.235 718.79 181.516 720.495 179.653C734.179 164.733 746.593 148.057 760.36 133.297C747.145 118.592 734.453 102.695 721.77 87.4871C720.902 86.4475 720.993 85.625 721.234 84.4338C722.106 83.2771 722.612 83.1945 723.965 82.7743C728.784 82.7191 743.8 81.929 746.601 84.0008C749.619 86.2308 759.737 98.8985 762.51 102.274C766.913 107.576 771.383 112.823 775.916 118.013Z" fill="#EAEDFF"/>
<path d="M537.6 198.246C547.129 198.083 554.758 196.45 554.774 208.958C554.787 216.813 555.667 223.902 545.465 224.196C533.79 224.395 527.768 226.202 527.93 211.504C528.017 203.546 528.112 198.666 537.6 198.246ZM547.063 218.883C548.055 218.401 548.918 218.24 549.171 217.135C549.848 214.154 550.188 207.532 549.039 204.843C547.154 202.766 538.642 203.538 535.898 203.617C535.019 203.862 534.184 203.846 533.773 204.762C532.603 207.356 532.014 216.192 534.122 218.125C537.127 219.422 543.502 218.955 547.063 218.883Z" fill="#EAEDFF"/>
<path d="M785.32 198.248C796.966 198.073 801.868 197.151 801.756 211.214C801.689 219.355 801.183 224.16 791.583 224.211C788.533 224.267 779.265 224.811 777.48 222.509C774.28 218.385 773.4 204.673 777.422 200.546C779.838 198.07 782.328 198.327 785.32 198.248ZM793.575 218.91C794.451 218.635 795.597 218.495 795.991 217.464C796.867 215.176 797.672 205.319 795.198 204.3C792.243 203.081 786.698 203.529 783.258 203.618C782.407 203.811 781.232 203.849 780.842 204.699C779.572 207.485 778.983 215.863 781.095 218.116C784 219.392 790.131 218.965 793.575 218.91Z" fill="#EAEDFF"/>
<path d="M424.768 198.247C438.061 198.044 440.473 198.346 440.431 213.144C440.41 220.966 438.352 224.132 430.084 224.202C426.702 224.251 418.123 224.748 416.077 222.498C412.745 218.835 412.848 204.244 415.952 200.24C417.563 198.166 422.439 198.298 424.768 198.247ZM433.097 218.829C434.139 218.241 434.807 218.048 434.994 216.687C437.148 201.248 433.732 203.37 421.377 203.585C420.41 203.964 419.509 204.122 419.189 205.319C418.538 207.753 417.521 217.827 420.513 218.509C423.958 219.295 429.379 218.935 433.097 218.829Z" fill="#EAEDFF"/>
<path d="M754.632 198.246C757.185 198.22 764.975 197.879 766.581 199.751C770.225 204.009 771.055 217.696 766.976 221.985C764.68 224.397 761.767 224.203 758.758 224.214C751.067 224.249 742.729 225.586 742.862 214.941C742.912 210.712 743.003 206.814 743.468 202.591C746.448 197.726 749.573 198.316 754.632 198.246ZM762.194 218.852C763.19 218.278 763.879 218.078 764.116 216.724C764.676 213.501 765.137 207.912 763.809 204.935C762.012 202.725 753.138 203.557 750.395 203.633C749.332 204.004 748.913 203.887 748.374 205.084C747.514 206.976 747.066 217.66 749.096 218.333C752.404 219.427 758.409 218.957 762.194 218.852Z" fill="#EAEDFF"/>
<path d="M566.462 198.245C576.585 198.115 585.836 196.384 585.404 209.987C585.213 215.871 585.786 221.125 579.465 223.867C575.634 224.497 564.594 224.212 560.324 224.192C560.22 215.662 560.315 206.996 560.336 198.456C562.32 198.341 564.461 198.311 566.462 198.245ZM579.262 218.221C580.544 215.375 581.702 205.256 577.751 204.018C574.128 202.881 569.027 203.698 564.989 203.504C565.271 208.488 565.171 214.07 565.184 219.104C568.732 218.981 576.456 219.255 579.262 218.221Z" fill="#EAEDFF"/>
<path d="M506.335 220.088C508.742 213.952 510.635 207.415 512.86 201.193C514.047 197.879 519.691 197.029 521.642 198.916C522.982 202.31 523.219 221.11 522.273 223.952C520.994 224.467 519.21 224.576 518.068 223.778C517.687 220.424 517.965 209.313 517.973 205.413C517.998 204.386 518.151 204.617 517.608 203.98C516.827 204.833 516.084 207.276 515.715 208.42C505.273 240.767 501.467 219.597 494.818 202.122C494.399 208.595 495.071 215.425 494.955 221.909C494.926 223.698 492.78 224.762 491.037 224.373C489.555 222.337 489.908 202.646 490.344 199.599C491.493 198.287 491.273 198.644 493.224 198.206C494.166 198.196 497.184 198.131 497.632 198.586C500.799 201.819 504.501 215.629 506.335 220.088Z" fill="#EAEDFF"/>
<path d="M663.506 198.254C668.748 198.166 674.202 198.239 679.465 198.242L679.489 203.59C673.658 203.613 667.827 203.604 661.996 203.563V208.815C665.129 208.808 668.259 208.781 671.392 208.735C673.43 208.721 677.236 208.787 678.655 210.444C681.395 213.643 681.17 219.875 678.269 222.923C676.925 224.333 674.833 224.191 673.073 224.189C670.242 224.214 659.169 224.482 657.326 223.911C656.891 222.332 657.044 221.255 657.148 219.641C659.68 217.422 673.048 220.573 675.256 218.069C675.285 217.694 675.389 215.995 675.335 215.781C673.247 211.205 662.315 215.964 658.874 212.659C655.625 209.537 656.023 203.113 658.663 199.861C659.958 198.263 661.647 198.355 663.506 198.254Z" fill="#EAEDFF"/>
<path d="M467.326 219.545C467.288 214.593 467.23 209.659 467.11 204.709C467.035 201.546 466.259 199.117 469.799 197.821C471.231 197.968 470.754 197.722 471.696 198.759C472.29 202.948 472.368 218.068 471.484 222.933C471.331 223.774 470.281 223.964 469.492 224.245C463.233 224.322 463.35 223.344 459.938 217.982C456.734 212.947 453.551 207.768 450.724 202.508C450.745 205.135 451.189 222.389 450.425 223.688C449.325 224.405 447.217 224.444 446.213 223.59C445.731 220.296 445.702 202.883 446.312 199.647C447.383 198.335 446.997 198.734 448.827 198.164C450.081 198.143 453.028 198.007 453.82 199.059C458.734 205.571 462.656 212.767 467.326 219.545Z" fill="#EAEDFF"/>
<path d="M382.286 198.245C387.265 198.198 392.243 198.199 397.222 198.246L397.268 203.566C391.583 203.698 385.651 203.602 379.947 203.59C379.83 205.163 379.944 207.203 379.992 208.818C386.56 208.742 398.886 206.455 398.335 216.016C397.981 222.142 396.473 224.223 390.24 224.195C386.428 224.119 377.339 225.557 375.103 222.684C374.633 221.356 374.796 220.985 375.165 219.593C377.57 217.729 389.499 220.068 392.748 218.35C393.272 217.292 393.208 216.952 393.156 215.753C390.623 211.447 380.613 215.857 376.87 212.679C373.744 210.025 373.963 202.721 376.748 199.789C378.321 198.132 380.153 198.318 382.286 198.245Z" fill="#EAEDFF"/>
<path d="M601.491 198.248L613.316 198.243L613.382 203.561C608.642 203.685 602.985 203.024 598.399 203.74C595.656 204.169 595.494 206.457 595.066 208.888C600.732 208.669 607.472 208.814 613.22 208.797L613.087 213.915C607.717 213.878 600.869 213.645 595.614 213.981C595.162 214.994 595.531 216.076 595.697 217.324C595.896 217.667 596.328 218.094 596.61 218.401C599.155 219.423 610.02 218.936 613.341 218.874L613.365 224.191C609.896 224.188 596.253 225.007 593.56 223.122C590.7 219.871 590.401 215.775 590.314 211.685C590.115 201.853 591.514 198.44 601.491 198.248Z" fill="#EAEDFF"/>
<path d="M713.465 198.18C716.885 197.968 718.819 198.002 718.57 202.36C718.445 204.55 718.408 206.676 718.404 208.869C722.898 208.712 728.028 208.817 732.573 208.802L732.515 198.304C733.934 198.172 736.022 198.247 737.504 198.263L737.52 224.202C736.134 224.311 734.748 224.569 733.511 223.963C731.73 222.104 732.561 217.057 732.59 213.939L718.362 213.913C718.416 216.206 718.972 222.533 717.578 224.114C716.208 224.289 715.49 224.157 714.145 223.991C712.846 222.454 713.448 201.752 713.465 198.18Z" fill="#EAEDFF"/>
<path d="M699.063 198.255L708.372 198.255L708.322 203.658C703.234 203.642 696.851 203.454 691.883 203.926C691.073 204.481 690.658 204.653 690.447 205.725C690.044 207.76 689.583 216.295 690.766 217.596C693.219 220.294 703.848 218.146 707.928 219.006L708.268 219.721C708.364 221.113 708.592 222.445 707.982 223.688C707.708 223.914 707.144 224.27 706.791 224.235C695.576 223.136 684.756 229.016 685.122 212.568C685.42 199.192 685.802 198.248 699.063 198.255Z" fill="#EAEDFF"/>
<path d="M345.556 219.499C347.313 215.315 352.796 201.384 355.088 198.71C356.503 197.883 358.477 198.069 360.176 198.068C359.597 199.634 358.825 201.304 358.148 202.846C356.406 206.857 350.618 221.794 347.632 223.864C344.927 224.614 342.411 224.516 341.238 221.597C339.771 217.947 330.726 200.551 331.397 198.225C332.587 198.134 334.076 197.903 335.213 198.31C337.325 199.066 344.01 216.212 345.556 219.499Z" fill="#EAEDFF"/>
<path d="M808.085 198.208C809.795 198.183 810.243 197.915 811.443 198.796C814.07 203.805 809.625 214.265 813.124 217.917C815.934 219.559 825.475 218.881 829.364 218.81C829.339 220.609 829.273 222.408 829.157 224.204C824.139 224.165 819.378 224.423 814.24 224.148C807.014 223.762 807.363 217.759 807.114 212.023C806.927 207.773 807.019 203.082 807.338 198.843C807.355 198.648 807.89 198.346 808.085 198.208Z" fill="#EAEDFF"/>
<path d="M618.744 198.08C619.707 198.083 623.073 197.967 623.372 199.061C624.426 202.944 622.359 215.096 624.43 217.944C627.311 219.48 636.89 218.887 640.447 218.849L640.488 224.172C615.374 224.514 617.852 223.672 618.744 198.08Z" fill="#EAEDFF"/>
<path d="M403.7 198.184C405.067 198.162 406.726 197.966 407.855 198.641C408.255 201.313 408.371 223.032 407.525 224.251C406.17 224.295 404.203 224.566 403.314 223.561C403.042 220.571 402.672 199.596 403.7 198.184Z" fill="#EAEDFF"/>
<path d="M364.451 198.152C366.422 198.081 367.551 197.836 369.093 198.94C369.613 201.789 369.339 219.943 369.334 224.22C367.648 224.319 365.986 224.549 364.611 223.649C364.015 219.661 364.433 203.304 364.451 198.152Z" fill="#EAEDFF"/>
</svg>
