<svg width="24" height="24" viewBox="0 0 24 24" fill="none" xmlns="http://www.w3.org/2000/svg">
<path d="M20.031 12.2193C20.1008 12.289 20.1561 12.3717 20.1938 12.4627C20.2316 12.5538 20.251 12.6514 20.251 12.7499C20.251 12.8485 20.2316 12.9461 20.1938 13.0371C20.1561 13.1282 20.1008 13.2109 20.031 13.2806L12.531 20.7806C12.4614 20.8503 12.3787 20.9056 12.2876 20.9433C12.1966 20.9811 12.099 21.0005 12.0004 21.0005C11.9019 21.0005 11.8043 20.9811 11.7132 20.9433C11.6222 20.9056 11.5394 20.8503 11.4698 20.7806L3.96979 13.2806C3.82906 13.1398 3.75 12.949 3.75 12.7499C3.75 12.5509 3.82906 12.36 3.96979 12.2193C4.11052 12.0786 4.30139 11.9995 4.50042 11.9995C4.69944 11.9995 4.89031 12.0786 5.03104 12.2193L12.0004 19.1896L18.9698 12.2193C19.0394 12.1496 19.1222 12.0943 19.2132 12.0565C19.3043 12.0188 19.4019 11.9993 19.5004 11.9993C19.599 11.9993 19.6966 12.0188 19.7876 12.0565C19.8787 12.0943 19.9614 12.1496 20.031 12.2193ZM11.4698 13.2806C11.5394 13.3503 11.6222 13.4056 11.7132 13.4433C11.8043 13.4811 11.9019 13.5005 12.0004 13.5005C12.099 13.5005 12.1966 13.4811 12.2876 13.4433C12.3787 13.4056 12.4614 13.3503 12.531 13.2806L20.031 5.78055C20.1718 5.63982 20.2508 5.44895 20.2508 5.24993C20.2508 5.05091 20.1718 4.86003 20.031 4.7193C19.8903 4.57857 19.6994 4.49951 19.5004 4.49951C19.3014 4.49951 19.1105 4.57857 18.9698 4.7193L12.0004 11.6896L5.03104 4.7193C4.89031 4.57857 4.69944 4.49951 4.50042 4.49951C4.30139 4.49951 4.11052 4.57857 3.96979 4.7193C3.82906 4.86003 3.75 5.05091 3.75 5.24993C3.75 5.44895 3.82906 5.63982 3.96979 5.78055L11.4698 13.2806Z" fill="black"/>
</svg>
