<svg width="34" height="34" viewBox="0 0 34 34" fill="none" xmlns="http://www.w3.org/2000/svg">
<g clip-path="url(#clip0_334_474)">
<path d="M13.2582 10.3861L22.8042 10.3861C22.9027 10.386 23.0003 10.4054 23.0914 10.4431C23.1825 10.4808 23.2652 10.5361 23.3349 10.6058C23.4046 10.6755 23.4599 10.7582 23.4976 10.8493C23.5353 10.9403 23.5546 11.0379 23.5546 11.1365L23.5546 20.6824C23.5546 20.8815 23.4755 21.0723 23.3348 21.2131C23.194 21.3538 23.0032 21.4329 22.8042 21.4329C22.6051 21.4329 22.4143 21.3538 22.2735 21.2131C22.1328 21.0723 22.0537 20.8815 22.0537 20.6824L22.0544 12.9469L11.6672 23.3341C11.5266 23.4748 11.3358 23.5538 11.1369 23.5538C10.938 23.5538 10.7472 23.4748 10.6066 23.3341C10.4659 23.1934 10.3869 23.0027 10.3869 22.8038C10.3869 22.6049 10.4659 22.4141 10.6066 22.2734L20.9937 11.8863L13.2582 11.8869C13.0592 11.8869 12.8683 11.8079 12.7276 11.6671C12.5869 11.5264 12.5078 11.3355 12.5078 11.1365C12.5078 10.9375 12.5869 10.7466 12.7276 10.6059C12.8683 10.4652 13.0592 10.3861 13.2582 10.3861Z" fill="black"/>
</g>
<defs>
<clipPath id="clip0_334_474">
<rect width="33.9411" height="33.9411" fill="white"/>
</clipPath>
</defs>
</svg>
