<svg width="24" height="24" viewBox="0 0 24 24" fill="none" xmlns="http://www.w3.org/2000/svg">
<path d="M5.25019 9V15C5.25019 15.1989 5.17117 15.3897 5.03052 15.5303C4.88987 15.671 4.6991 15.75 4.50019 15.75C4.30128 15.75 4.11051 15.671 3.96986 15.5303C3.82921 15.3897 3.75019 15.1989 3.75019 15V9C3.75019 8.80109 3.82921 8.61032 3.96986 8.46967C4.11051 8.32902 4.30128 8.25 4.50019 8.25C4.6991 8.25 4.88987 8.32902 5.03052 8.46967C5.17117 8.61032 5.25019 8.80109 5.25019 9ZM5.05519 3.24562C4.98932 3.17138 4.90938 3.11095 4.81999 3.06783C4.7306 3.02471 4.63354 2.99976 4.53443 2.99443C4.43533 2.9891 4.33615 3.00349 4.24265 3.03677C4.14915 3.07005 4.06318 3.12156 3.98973 3.18831C3.91628 3.25505 3.85681 3.33572 3.81477 3.42562C3.77272 3.51552 3.74894 3.61288 3.74479 3.71204C3.74065 3.8112 3.75623 3.9102 3.79063 4.00329C3.82503 4.09639 3.87756 4.18173 3.94519 4.25438L7.50019 8.16469V21C7.50019 21.1989 7.57921 21.3897 7.71986 21.5303C7.86051 21.671 8.05128 21.75 8.25019 21.75C8.4491 21.75 8.63987 21.671 8.78052 21.5303C8.92117 21.3897 9.00019 21.1989 9.00019 21V9.81469L11.2502 12.2897V18C11.2502 18.1989 11.3292 18.3897 11.4699 18.5303C11.6105 18.671 11.8013 18.75 12.0002 18.75C12.1991 18.75 12.3899 18.671 12.5305 18.5303C12.6712 18.3897 12.7502 18.1989 12.7502 18V13.9397L18.9452 20.7544C19.0111 20.8286 19.091 20.8891 19.1804 20.9322C19.2698 20.9753 19.3668 21.0002 19.4659 21.0056C19.5651 21.0109 19.6642 20.9965 19.7577 20.9632C19.8512 20.93 19.9372 20.8784 20.0106 20.8117C20.0841 20.7449 20.1436 20.6643 20.1856 20.5744C20.2277 20.4845 20.2514 20.3871 20.2556 20.288C20.2597 20.1888 20.2441 20.0898 20.2097 19.9967C20.1753 19.9036 20.1228 19.8183 20.0552 19.7456L5.05519 3.24562ZM8.25019 4.16531C8.4491 4.16531 8.63987 4.08629 8.78052 3.94564C8.92117 3.80499 9.00019 3.61422 9.00019 3.41531V3C9.00019 2.80109 8.92117 2.61032 8.78052 2.46967C8.63987 2.32902 8.4491 2.25 8.25019 2.25C8.05128 2.25 7.86051 2.32902 7.71986 2.46967C7.57921 2.61032 7.50019 2.80109 7.50019 3V3.41531C7.50019 3.61422 7.57921 3.80499 7.71986 3.94564C7.86051 4.08629 8.05128 4.16531 8.25019 4.16531ZM12.0002 8.29031C12.1991 8.29031 12.3899 8.21129 12.5305 8.07064C12.6712 7.92999 12.7502 7.73922 12.7502 7.54031V6C12.7502 5.80109 12.6712 5.61032 12.5305 5.46967C12.3899 5.32902 12.1991 5.25 12.0002 5.25C11.8013 5.25 11.6105 5.32902 11.4699 5.46967C11.3292 5.61032 11.2502 5.80109 11.2502 6V7.54031C11.2502 7.73922 11.3292 7.92999 11.4699 8.07064C11.6105 8.21129 11.8013 8.29031 12.0002 8.29031ZM15.7502 12.4153C15.9491 12.4153 16.1399 12.3363 16.2805 12.1956C16.4212 12.055 16.5002 11.8642 16.5002 11.6653V9C16.5002 8.80109 16.4212 8.61032 16.2805 8.46967C16.1399 8.32902 15.9491 8.25 15.7502 8.25C15.5513 8.25 15.3605 8.32902 15.2199 8.46967C15.0792 8.61032 15.0002 8.80109 15.0002 9V11.6653C15.0002 11.8642 15.0792 12.055 15.2199 12.1956C15.3605 12.3363 15.5513 12.4153 15.7502 12.4153ZM19.5002 6.75C19.3013 6.75 19.1105 6.82902 18.9699 6.96967C18.8292 7.11032 18.7502 7.30109 18.7502 7.5V15.7903C18.7502 15.9892 18.8292 16.18 18.9699 16.3206C19.1105 16.4613 19.3013 16.5403 19.5002 16.5403C19.6991 16.5403 19.8899 16.4613 20.0305 16.3206C20.1712 16.18 20.2502 15.9892 20.2502 15.7903V7.5C20.2502 7.30109 20.1712 7.11032 20.0305 6.96967C19.8899 6.82902 19.6991 6.75 19.5002 6.75Z" fill="white"/>
</svg>
